Coordinates
version=1
nRows=14
nColumns=46
inDegrees=yes

Units are S.I. units (second, meters, Newtons, ...)
Angles are in degrees.

endheader
time	pelvis_tilt	pelvis_list	pelvis_rotation	pelvis_tx	pelvis_ty	pelvis_tz	bb_angle	bb_tx	bb_ty	bb_tz	hip_flexion_r	hip_adduction_r	hip_rotation_r	knee_angle_r	knee_angle_r_beta	ankle_angle_r	subtalar_angle_r	mtp_angle_r	crank_angle_r	hip_flexion_l	hip_adduction_l	hip_rotation_l	knee_angle_l	knee_angle_l_beta	ankle_angle_l	subtalar_angle_l	mtp_angle_l	crank_angle_l	lumbar_extension	lumbar_bending	lumbar_rotation	arm_flex_r	arm_add_r	arm_rot_r	elbow_flex_r	pro_sup_r	wrist_flex_r	wrist_dev_r	arm_flex_l	arm_add_l	arm_rot_l	elbow_flex_l	pro_sup_l	wrist_flex_l	wrist_dev_l
      2.50500000	    -17.13070711	      0.97138292	     -3.24050045	      0.15058683	      1.14987087	     -0.25173724	      0.00000000	      0.50000000	      0.00000000	      0.25000000	     53.54774555	     -0.97587747	      2.97575343	     42.03415900	      0.73363447	      3.38238683	     -6.29644129	      0.00000000	      0.00000000	     81.23566778	     -7.85689865	      2.57527115	    110.42825095	      1.92733657	     -8.03586785	     -7.80159118	      0.00000000	      0.00000000	    -63.56076652	     -0.22528346	     -4.35281867	     89.74530889	     -7.74599345	     25.47954851	     62.03912174	     26.25387273	      0.00000000	      0.00000000	     84.54725260	    -23.57970224	     15.41639363	     70.21674145	     41.68382866	      0.00000000	      0.00000000
      2.51000000	    -17.01143489	      1.42260839	     -2.68758363	      0.15100614	      1.15090544	     -0.25106500	      0.00000000	      0.50000000	      0.00000000	      0.25000000	     52.09772861	     -1.80881938	      2.66984466	     40.64488402	      0.70938705	      3.03096746	     -5.58035513	      0.00000000	      0.00000000	     82.35644187	     -7.34025878	      2.42362349	    111.13078137	      1.93959804	     -8.27322176	     -7.34858529	      0.00000000	      0.00000000	    -63.69966926	     -0.59370913	     -4.49047429	     89.72961366	     -9.01662435	     25.63096635	     62.17715780	     26.33974796	      0.00000000	      0.00000000	     85.22821330	    -22.13358589	     15.57956715	     69.18925748	     41.63751578	      0.00000000	      0.00000000
      2.51500000	    -17.07144494	      1.89917117	     -2.35615366	      0.15126626	      1.15134973	     -0.25020307	      0.00000000	      0.50000000	      0.00000000	      0.25000000	     50.97914189	     -2.50544051	      2.40066060	     39.45078995	      0.68854618	      2.69142554	     -5.03771490	      0.00000000	      0.00000000	     83.65646863	     -7.07671540	      2.17770625	    111.81601116	      1.95155755	     -8.29629970	     -7.07545975	      0.00000000	      0.00000000	    -63.62756538	     -1.04626059	     -4.90801134	     89.70813398	     -9.48604115	     25.59382935	     62.16392846	     26.36474224	      0.00000000	      0.00000000	     85.45348984	    -21.62027382	     15.68671351	     69.01935533	     41.64525343	      0.00000000	      0.00000000
      2.52000000	    -16.82471754	      2.24996434	     -1.78347890	      0.15183893	      1.15251624	     -0.24957471	      0.00000000	      0.50000000	      0.00000000	      0.25000000	     49.52538517	     -3.37140992	      1.65774628	     38.39173098	      0.67006211	      2.47053772	     -4.06500816	      0.00000000	      0.00000000	     84.58788915	     -6.62219244	      2.09853010	    112.38795598	      1.96153987	     -8.20465704	     -6.48168735	      0.00000000	      0.00000000	    -63.88820300	     -1.49973778	     -4.29810737	     89.68228809	    -12.34382185	     26.53626911	     62.97906938	     26.83299866	      0.00000000	      0.00000000	     86.66604022	    -18.74579162	     16.12020915	     66.54608420	     41.57903410	      0.00000000	      0.00000000
      2.52500000	    -16.85394636	      2.56797828	     -1.29331912	      0.15252896	      1.15293464	     -0.24880349	      0.00000000	      0.50000000	      0.00000000	      0.25000000	     48.47676664	     -4.08858467	      0.97688702	     37.55725459	      0.65549775	      2.23409184	     -3.52150070	      0.00000000	      0.00000000	     85.81139906	     -6.32318524	      1.99319518	    112.90450287	      1.97055532	     -8.27687566	     -6.06515646	      0.00000000	      0.00000000	    -63.89566145	     -1.73889515	     -4.69251295	     89.65728796	    -12.68061867	     26.48804946	     62.85173486	     26.84974798	      0.00000000	      0.00000000	     86.82828910	    -18.30230153	     16.28631055	     66.66433944	     41.64061247	      0.00000000	      0.00000000
      2.53000000	    -16.62021805	      2.88222011	     -0.69031646	      0.15330890	      1.15401804	     -0.24836322	      0.00000000	      0.50000000	      0.00000000	      0.25000000	     47.21863667	     -5.00144137	     -0.08781492	     36.95271197	      0.64494649	      2.34349611	     -2.36633381	      0.00000000	      0.00000000	     86.63371601	     -5.89691337	      1.84390718	    113.28099048	      1.97712626	     -8.03134883	     -5.40342897	      0.00000000	      0.00000000	    -64.15509153	     -1.95930271	     -4.83289867	     89.64304212	    -13.75898196	     26.68671997	     62.86485375	     26.99912785	      0.00000000	      0.00000000	     87.23957517	    -17.14910103	     16.70644104	     66.16895599	     41.67311389	      0.00000000	      0.00000000
      2.53500000	    -16.64057170	      3.19743243	     -0.05191789	      0.15367826	      1.15448937	     -0.24776183	      0.00000000	      0.50000000	      0.00000000	      0.25000000	     46.39665502	     -5.85246766	     -1.08658119	     36.57808201	      0.63840797	      2.15133725	     -1.61973609	      0.00000000	      0.00000000	     87.76484592	     -5.50588364	      1.63471920	    113.52381424	      1.98136434	     -8.10467202	     -4.97756339	      0.00000000	      0.00000000	    -64.18840680	     -2.20868340	     -4.79627312	     89.60244902	    -15.27823769	     27.14352449	     63.33393195	     27.39387059	      0.00000000	      0.00000000	     87.80593460	    -15.68572364	     17.16596022	     65.21140117	     41.66770340	      0.00000000	      0.00000000
      2.54000000	    -16.65132271	      3.53912116	      0.49789265	      0.15424435	      1.15496913	     -0.24710578	      0.00000000	      0.50000000	      0.00000000	      0.25000000	     45.66474312	     -6.64099176	     -1.96649901	     36.41204148	      0.63551001	      1.83791797	     -1.34593227	      0.00000000	      0.00000000	     88.78471184	     -5.04072184	      1.46535641	    113.69225311	      1.98430415	     -8.10729211	     -4.59651567	      0.00000000	      0.00000000	    -64.24760475	     -2.43014342	     -5.19946712	     89.57503733	    -15.67310293	     27.12070735	     63.26044738	     27.44305785	      0.00000000	      0.00000000	     87.97722054	    -15.07721386	     17.45397912	     65.35809056	     41.73435703	      0.00000000	      0.00000000
      2.54500000	    -16.58216792	      3.84022902	      1.16116584	      0.15477815	      1.15571553	     -0.24673876	      0.00000000	      0.50000000	      0.00000000	      0.25000000	     44.94123067	     -7.52896228	     -3.05400437	     36.50059215	      0.63705551	      1.80507383	     -0.65821201	      0.00000000	      0.00000000	     89.61277471	     -4.56299081	      1.19870243	    113.69495531	      1.98435131	     -7.99596528	     -4.15947914	      0.00000000	      0.00000000	    -64.39975657	     -2.57102295	     -5.42714759	     89.54637904	    -16.54733121	     27.19513629	     63.31330367	     27.57362186	      0.00000000	      0.00000000	     88.22502159	    -14.15273238	     17.98325202	     65.20195074	     41.77151294	      0.00000000	      0.00000000
      2.55000000	    -16.64903273	      4.13326231	      1.70582799	      0.15522407	      1.15631751	     -0.24611150	      0.00000000	      0.50000000	      0.00000000	      0.25000000	     44.43372979	     -8.22678197	     -3.82196810	     36.65688079	      0.63978326	      1.41296157	     -0.56149533	      0.00000000	      0.00000000	     90.48669231	     -4.17432956	      0.94687506	    113.57396014	      1.98223955	     -7.94095357	     -3.86744720	      0.00000000	      0.00000000	    -64.40779671	     -2.75524889	     -5.77832523	     89.52024157	    -16.82714138	     27.21975539	     63.37678815	     27.63401819	      0.00000000	      0.00000000	     88.48314854	    -13.51654212	     18.30672993	     65.26927243	     41.81230545	      0.00000000	      0.00000000
      2.55500000	    -16.60106523	      4.52103881	      2.46173352	      0.15535176	      1.15733325	     -0.24567730	      0.00000000	      0.50000000	      0.00000000	      0.25000000	     43.95056610	     -9.16051659	     -4.65898430	     37.15217251	      0.64842773	      1.20358045	     -0.58157479	      0.00000000	      0.00000000	     91.07936981	     -3.54138760	      0.55220308	    113.21347993	      1.97594798	     -7.76318276	     -3.59455279	      0.00000000	      0.00000000	    -64.58357082	     -2.81929972	     -6.17560104	     89.48779018	    -17.34496500	     27.19156457	     63.40325516	     27.68482911	      0.00000000	      0.00000000	     88.71590018	    -12.74945677	     18.80156802	     65.24287665	     41.84704944	      0.00000000	      0.00000000
      2.56000000	    -16.62751005	      4.86801291	      3.13097053	      0.15579276	      1.15803850	     -0.24579390	      0.00000000	      0.50000000	      0.00000000	      0.25000000	     43.65480857	    -10.06940378	     -5.35923471	     37.88972829	      0.66130051	      1.38622025	      0.05844007	      0.00000000	      0.00000000	     91.65834323	     -2.97409694	      0.10315001	    112.80929858	      1.96889369	     -7.52968553	     -3.38127422	      0.00000000	      0.00000000	    -64.67503972	     -2.99038398	     -5.83560840	     89.44128095	    -19.82821929	     28.27029495	     64.39369819	     28.52557839	      0.00000000	      0.00000000	     89.01198911	    -10.96168292	     19.43001557	     64.28765192	     41.54605701	      0.00000000	      0.00000000
      2.56500000	    -16.66430638	      5.10944097	      3.76109590	      0.15586383	      1.15877612	     -0.24545590	      0.00000000	      0.50000000	      0.00000000	      0.25000000	     43.48809721	    -10.74241879	     -5.85256944	     38.77515196	      0.67675407	      0.99846876	     -0.22013101	      0.00000000	      0.00000000	     92.18509396	     -2.49465715	     -0.22939744	    112.26275098	      1.95935463	     -7.30076166	     -3.12517282	      0.00000000	      0.00000000	    -64.77603107	     -2.94281015	     -6.14359512	     89.45347230	    -19.93607119	     28.20479574	     64.34435586	     28.55057356	      0.00000000	      0.00000000	     89.12788636	    -10.42804467	     19.74818617	     64.47247398	     41.58816685	      0.00000000	      0.00000000
      2.57000000	    -16.76531594	      5.40905207	      4.46035269	      0.15581017	      1.15945164	     -0.24545086	      0.00000000	      0.50000000	      0.00000000	      0.25000000	     43.51085620	    -11.53412652	     -6.28848110	     39.88496082	      0.69612389	      0.76777323	     -0.55585550	      0.00000000	      0.00000000	     92.64014396	     -1.85867442	     -0.60062255	    111.53615907	      1.94667321	     -7.02979999	     -2.81254298	      0.00000000	      0.00000000	    -64.82201790	     -2.88684127	     -6.49916083	     89.41425212	    -20.27973925	     28.06421102	     64.22414080	     28.56500912	      0.00000000	      0.00000000	     89.20901751	     -9.92125320	     20.09943859	     64.62429592	     41.61904130	      0.00000000	      0.00000000
